<?xml version="1.0" encoding="UTF-8"?><svg id="Layer_2" xmlns="http://www.w3.org/2000/svg" width="169.78" height="174.37" viewBox="0 0 169.78 174.37"><defs><style>.cls-1{fill:#125f89;}</style></defs><g id="Layer_1-2"><g><g><g><path class="cls-1" d="M92.5,76.61l-13.11-3.13-.34-37.01c0-4.47-1.56-8.84-6.94-8.84s-7.77,3.76-7.77,11.35l.52,37.72-12.77-2.47-.43-37.26c0-5.1-1.2-9.22-6.79-9.22s-7.84,3.41-7.84,11.85v27.33h-12.95V30.42c0-4.25,0-8.47-.09-12.68h11.86c.17,1.2,.44,3.95,.51,5.88,2.43-3.67,6.28-7.02,13.32-7.02s10.68,3.67,12.37,7.5c2.8-4.03,6.94-7.5,14.77-7.5,8.35,0,15.19,5.28,15.19,18.1l.51,41.92Z"/><path class="cls-1" d="M91.84,34.69c0-12.82-6.76-18.1-15.02-18.1-7.74,0-11.83,3.47-14.6,7.5-1.67-3.83-5.42-7.5-12.23-7.5s-10.76,3.35-13.17,7.02c-.07-1.92-.33-4.68-.51-5.88h-12.32c.09,4.21,.09,8.42,.09,12.68v36.51h12.95v-27.53c0-8.45,2.53-11.87,7.88-11.87,5.61,0,6.82,4.13,6.82,9.23l.43,37.45,12.88,2.49-.52-37.8c0-7.49,2.15-11.2,7.67-11.2s6.85,4.31,6.85,8.73l.34,37.05,12.96,3.13-.5-41.92Z"/></g><g><path class="cls-1" d="M119.99,85.46v32.27h-12.95v-30.68c0-4.45-1.56-8.81-6.94-8.81s-7.76,3.74-7.76,11.3v28.19h-12.6v-30.17c0-5.11-1.21-9.24-6.82-9.24s-7.88,3.41-7.88,11.87v27.54h-12.95v-36.51c0-4.26,0-8.47-.09-12.68h12.53c.17,1.2,.44,3.94,.51,5.86,2.4-3.66,6.21-7.01,13.16-7.01s10.55,3.66,12.22,7.48c2.77-4.02,6.86-7.48,14.59-7.48,8.25,0,15,5.27,15,18.06Z"/><path class="cls-1" d="M104.99,67.4c-7.73,0-11.82,3.46-14.59,7.48-1.67-3.82-5.41-7.48-12.22-7.48s-10.75,3.34-13.16,7.01c-.07-1.92-.33-4.67-.51-5.86h-12.53c.09,4.21,.09,8.42,.09,12.68v36.51h12.95v-27.54c0-8.46,2.54-11.87,7.88-11.87,5.61,0,6.82,4.13,6.82,9.24v30.17h12.6v-28.19c0-7.56,2.18-11.3,7.76-11.3s6.94,4.35,6.94,8.81v30.68h12.95v-32.27c0-12.79-6.75-18.06-15-18.06Z"/></g><path class="cls-1" d="M139.25,53.45v-19.26c0-10.95-6.99-15.76-19.84-15.84-14.58-.08-19.85,6.54-20.57,14.71h12.63c.61-3.33,1.84-5.61,7.44-5.61,6.16,0,7.38,3.22,7.38,6.49v2.76h-6.84c-14.06,0-22.83,4.83-22.83,15.29,0,7.12,4.88,14.4,16.44,14.4,8.48,0,11.74-2.97,13.48-5.55,.02,1.16,.3,3.58,.67,4.49h12.68c-.28-1.11-.65-7.49-.65-11.87Zm-12.95-7.89c0,6.08-1.04,11.7-9.49,11.7-4.78,0-6.92-2.81-6.92-6.13,0-4.44,2.97-6.78,10.99-6.78h5.42v1.21Z"/><g><path class="cls-1" d="M169,103.78V20.97h-12.6l-.53,50.63c-1.05-2.21-4.72-4.71-11.54-4.71-13.43,0-21.55,11.03-21.55,26.2s7.63,25.39,19.63,25.39c7.09,0,11.17-2.41,13.46-6.29,.08,1.12,.33,3.67,.6,5.15h12.63c-.09-4.51-.09-9.06-.09-13.55Zm-22.74,3.68c-6.41,0-10-5.2-10-14.82s3.47-14.91,10.34-14.91c8.56,0,9.7,6.38,9.7,14.81,0,7.09-1.04,14.92-10.04,14.92Z"/><path class="cls-1" d="M169,103.78V20.96s-13.1,50.63-13.1,50.63c-1.05-2.21-4.71-4.71-11.51-4.71-13.39,0-21.49,11.03-21.49,26.2s7.61,25.39,19.57,25.39c7.07,0,11.14-2.41,13.42-6.29,.08,1.12,.33,3.67,.6,5.15h12.59c-.09-4.51-.09-9.06-.09-13.55Zm-22.74,3.68c-6.41,0-10-5.2-10-14.82s3.47-14.91,10.34-14.91c8.56,0,9.7,6.38,9.7,14.81,0,7.09-1.04,14.92-10.04,14.92Z"/></g><path class="cls-1" d="M156.33,21.57c0-7.5-7.23-12.5-12.94-12.29l-124.23,.21c-8.57,.63-8,2.71-8.38,12.1l.76,106.16c0,8.34,4.76,8.13,12.19,8.13l125.34-1.03c4.14,0,7.34-.21,7.34-4.75l.38-8.1h12l.13,14.84c-1.23,8.04-5.55,11.62-12.69,11.13H11.85c-5.09-2.12-9.75-5.39-10.18-13.46L.91,18.77C.91,6.88,2.62,1.25,12.14,0L147.77,.42c9.13-.42,20.74,7.71,21.12,21.25"/></g><g><path class="cls-1" d="M35.61,155.63h4.26v1.72c.61-.72,1.23-1.23,1.86-1.53,.63-.3,1.38-.46,2.26-.46,.95,0,1.71,.17,2.26,.5,.55,.33,1.01,.83,1.36,1.49,.72-.77,1.37-1.29,1.96-1.57,.59-.28,1.32-.42,2.19-.42,1.28,0,2.27,.38,2.99,1.13,.72,.75,1.08,1.92,1.08,3.52v7.4h-4.58v-6.71c0-.53-.1-.93-.31-1.19-.31-.41-.69-.61-1.14-.61-.54,0-.97,.19-1.3,.58-.33,.38-.49,1-.49,1.85v6.08h-4.58v-6.49c0-.52-.03-.87-.09-1.05-.1-.3-.27-.53-.51-.72-.24-.18-.52-.27-.84-.27-.53,0-.96,.2-1.29,.59-.34,.39-.51,1.04-.51,1.93v6.01h-4.58v-11.78Z"/><path class="cls-1" d="M66.85,155.63h4.26v1.72c.61-.72,1.23-1.23,1.86-1.53,.63-.3,1.38-.46,2.26-.46,.95,0,1.71,.17,2.26,.5,.55,.33,1.01,.83,1.36,1.49,.72-.77,1.37-1.29,1.96-1.57,.59-.28,1.32-.42,2.19-.42,1.28,0,2.27,.38,2.99,1.13,.72,.75,1.08,1.92,1.08,3.52v7.4h-4.58v-6.71c0-.53-.1-.93-.31-1.19-.31-.41-.69-.61-1.14-.61-.54,0-.97,.19-1.3,.58-.33,.38-.49,1-.49,1.85v6.08h-4.58v-6.49c0-.52-.03-.87-.09-1.05-.1-.3-.27-.53-.51-.72-.24-.18-.52-.27-.84-.27-.53,0-.96,.2-1.29,.59-.34,.39-.51,1.04-.51,1.93v6.01h-4.58v-11.78Z"/><path class="cls-1" d="M102.21,159.44l-4.37-.45c.16-.75,.4-1.35,.71-1.78s.76-.81,1.34-1.13c.42-.23,1-.41,1.73-.53,.73-.13,1.53-.19,2.38-.19,1.37,0,2.47,.08,3.3,.23,.83,.15,1.52,.47,2.08,.95,.39,.33,.7,.8,.92,1.42,.22,.61,.34,1.19,.34,1.75v5.2c0,.55,.04,.99,.11,1.3,.07,.31,.23,.72,.47,1.2h-4.29c-.17-.3-.28-.53-.34-.69-.05-.16-.1-.41-.16-.75-.6,.57-1.19,.98-1.78,1.22-.81,.33-1.75,.49-2.82,.49-1.42,0-2.5-.33-3.24-.98s-1.11-1.45-1.11-2.41c0-.89,.27-1.63,.8-2.21s1.51-1.01,2.94-1.29c1.71-.34,2.82-.58,3.33-.71s1.05-.32,1.62-.54c0-.55-.12-.94-.35-1.17-.23-.22-.64-.33-1.22-.33-.75,0-1.31,.12-1.68,.36-.29,.18-.53,.53-.71,1.04Zm3.96,2.38c-.63,.22-1.28,.42-1.96,.59-.93,.24-1.52,.48-1.76,.72-.25,.24-.38,.52-.38,.83,0,.36,.12,.65,.38,.87,.25,.23,.62,.34,1.11,.34s.98-.12,1.42-.37c.44-.24,.75-.54,.93-.89,.18-.35,.27-.81,.27-1.37v-.72Z"/><path class="cls-1" d="M134.18,151.14v16.26h-4.28v-1.74c-.6,.74-1.15,1.24-1.64,1.5-.66,.34-1.39,.51-2.2,.51-1.62,0-2.86-.61-3.72-1.83-.86-1.22-1.29-2.7-1.29-4.45,0-1.95,.47-3.45,1.42-4.48,.95-1.04,2.15-1.55,3.61-1.55,.71,0,1.36,.12,1.94,.36,.58,.24,1.09,.59,1.54,1.06v-5.64h4.61Zm-4.58,10.34c0-.92-.2-1.61-.59-2.07s-.9-.68-1.5-.68c-.53,0-.98,.22-1.33,.66-.36,.44-.54,1.17-.54,2.2,0,.96,.19,1.67,.56,2.11s.83,.67,1.38,.67c.58,0,1.07-.23,1.46-.68,.39-.45,.58-1.19,.58-2.21Z"/></g></g></g></svg>